<?xml version="1.0" encoding="UTF-8"?>
<svg width="55px" height="36px" viewBox="0 0 55 36" version="1.1" xmlns="http://www.w3.org/2000/svg" xmlns:xlink="http://www.w3.org/1999/xlink">
    <title>Artboard</title>
    <defs>
        <linearGradient x1="3.652766e-14%" y1="100%" x2="50%" y2="50%" id="linearGradient-1">
            <stop stop-color="#C7C86B" offset="0%"></stop>
            <stop stop-color="#7F8119" offset="100%"></stop>
        </linearGradient>
    </defs>
    <g id="Artboard" stroke="none" stroke-width="1" fill="none" fill-rule="evenodd">
        <g id="Group" transform="translate(8.000000, 3.117695)" fill-rule="nonzero">
            <g id="streamline-icon-vegetables-broccoli-1@22x22" transform="translate(19.000000, 13.882305) rotate(-34.000000) translate(-19.000000, -13.882305) translate(9.000000, 3.882305)" fill="url(#linearGradient-1)">
                <path d="M10.9014195,16.1010867 C10.7331681,16.1019264 10.5819241,16.2038322 10.5179899,16.3594353 C10.4507994,16.51379 10.4874517,16.693685 10.6096796,16.8094619 L11.2265011,17.4344988 C12.1898267,18.3983754 13.4978829,18.938295 14.8607467,18.9345874 L14.8607467,18.9345874 C16.9547018,18.9330109 18.8386346,17.6623079 19.6241967,15.7216646 C20.4097588,13.7810212 19.9400847,11.5579564 18.4366443,10.1007324 C18.3333995,10.0021247 18.2891529,9.85677102 18.3199483,9.71737639 C18.8213814,7.46836474 18.139295,5.11907203 16.511348,3.4880607 C14.883401,1.85704936 12.5350759,1.17022637 10.284598,1.66690097 C10.1451766,1.69769046 9.99979494,1.65345237 9.90116839,1.55022741 C8.93255085,0.552687117 7.59912755,-0.0070625925 6.20857482,6.72887594e-05 L6.20857482,6.72887594e-05 C4.13266051,-0.0013519519 2.25939196,1.24509792 1.45928111,3.16025755 C0.659170251,5.07541718 1.08911652,7.28372928 2.54932296,8.75898646 L3.19115073,9.3923572 C3.31022242,9.50908064 3.48742144,9.54360594 3.64161733,9.4801257 C3.79581322,9.41664546 3.89731963,9.26738113 3.89966191,9.1006733 L3.89966191,6.80053747 C3.89966191,6.45533911 4.1795542,6.17550056 4.52481884,6.17550056 L4.52481884,6.17550056 C4.87142749,6.18006072 5.15000577,6.46229918 5.14997576,6.80887129 L5.14997576,9.51736458 C5.16373508,10.9488704 4.59864753,12.3252556 3.58291574,13.3342567 L0.33209973,16.5511133 C-0.11069991,16.9991133 -0.11069991,17.7198754 0.33209973,18.1678754 L1.83247635,19.667964 C2.28056236,20.1106787 3.00146292,20.1106787 3.44954893,19.667964 L6.66702323,16.4177721 C7.66810237,15.410517 9.03106388,14.8462272 10.4513065,14.8510129 L13.1686552,14.8510129 C13.5120432,14.8555013 13.7893229,15.1327278 13.7938122,15.4760498 C13.7938122,15.8212482 13.5139199,16.1010867 13.1686552,16.1010867 L10.9014195,16.1010867 Z M11.4098804,11.8258342 L8.33410836,12.4175358 C8.1294468,12.4545926 7.91930513,12.3927981 7.76729942,12.2508593 C7.61011435,12.1007386 7.54089098,11.8805247 7.58392005,11.6674916 L8.17573528,8.56730847 C8.25931717,8.24964609 8.57456602,8.05086504 8.89729687,8.11232579 C9.22002773,8.17378653 9.44011336,8.47451647 9.40104285,8.80065559 L9.10096752,10.3924163 C9.06789279,10.5281115 9.1079999,10.6712289 9.20677797,10.769988 C9.30555605,10.8687471 9.44870089,10.9088465 9.58442221,10.8757781 L11.1764885,10.5757604 C11.5026903,10.5366974 11.8034779,10.7567408 11.8649505,11.0794097 C11.926423,11.4020786 11.7276038,11.7172669 11.4098804,11.8008328 L11.4098804,11.8258342 Z" id="Shape"></path>
            </g>
            <g id="streamline-icon-programming-hold-code-1@22x22" transform="translate(0.000000, 13.882305)" fill="#FFAF49">
                <path d="M33.2827286,7.71643063 C33.4609203,7.89776319 33.7051829,8 33.9602282,8 C34.2152735,8 34.4595361,7.89776319 34.6377278,7.71643063 L37.7172714,4.65610744 C37.8982748,4.47668784 38,4.23306991 38,3.97901094 C38,3.72495197 37.8982748,3.48133404 37.7172714,3.30191444 L34.6377278,0.241591252 C34.2561045,-0.0955373054 33.675964,-0.077788801 33.3159314,0.28202957 C32.9558988,0.641847941 32.941326,1.21845898 33.2827286,1.59578426 L35.4076137,3.70740726 C35.5552649,3.8587507 35.5552649,4.09927118 35.4076137,4.25061462 L33.2827286,6.36223762 C33.1017252,6.54165722 33,6.78527516 33,7.03933412 C33,7.29339309 33.1017252,7.53701103 33.2827286,7.71643063 Z" id="Path"></path>
                <path d="M4.71727137,0.272962091 C4.3404498,-0.0909873635 3.73909377,-0.0909873635 3.3622722,0.272962091 L0.282728629,3.32091097 C0.101725183,3.49960509 0,3.74223797 0,3.99526966 C0,4.24830135 0.101725183,4.49093423 0.282728629,4.66962835 L3.3622722,7.71757723 C3.54046388,7.89817658 3.78472651,8 4.03977179,8 C4.29481706,8 4.53907969,7.89817658 4.71727137,7.71757723 C4.89827482,7.53888311 5,7.29625023 5,7.04321854 C5,6.79018685 4.89827482,6.54755397 4.71727137,6.36885985 L2.59238631,4.26577512 C2.44473506,4.11504363 2.44473506,3.87549569 2.59238631,3.7247642 L4.71727137,1.62167947 C4.89827482,1.44298535 5,1.20035247 5,0.94732078 C5,0.694289092 4.89827482,0.451656215 4.71727137,0.272962091 L4.71727137,0.272962091 Z" id="Path"></path>
            </g>
        </g>
    </g>
</svg>