<?xml version="1.0" standalone="no"?>
<!DOCTYPE svg PUBLIC "-//W3C//DTD SVG 20010904//EN"
 "http://www.w3.org/TR/2001/REC-SVG-20010904/DTD/svg10.dtd">
<svg version="1.0" xmlns="http://www.w3.org/2000/svg"
 width="880.000000pt" height="880.000000pt" viewBox="0 0 880.000000 880.000000"
 preserveAspectRatio="xMidYMid meet">
<metadata>
Created by potrace 1.14, written by Peter Selinger 2001-2017
</metadata>
<g transform="translate(0.000000,880.000000) scale(0.100000,-0.100000)"
fill="#000000" stroke="none">
<path d="M4203 6015 c-198 -36 -398 -136 -546 -275 l-63 -58 -159 5 c-141 5
-170 3 -245 -15 -104 -26 -243 -95 -327 -163 -131 -104 -240 -274 -284 -444
-29 -112 -29 -289 0 -400 68 -258 239 -458 481 -562 71 -30 251 -73 314 -75
39 -1 80 44 71 79 -3 13 -52 92 -110 177 -57 84 -109 166 -115 181 -25 66 35
134 107 120 39 -7 40 -9 213 -265 136 -203 170 -267 206 -387 22 -74 27 -108
27 -213 1 -117 -4 -148 -76 -508 -78 -389 -85 -439 -66 -489 12 -34 55 -80 89
-98 40 -21 400 -87 443 -82 55 7 114 50 137 100 12 24 51 204 91 417 81 432
88 458 140 564 50 101 93 158 177 237 87 83 482 349 518 349 29 0 64 -16 81
-39 15 -20 17 -76 3 -101 -6 -10 -86 -71 -180 -135 -173 -118 -191 -136 -175
-184 9 -30 47 -46 160 -67 133 -25 284 -23 390 5 619 163 834 918 392 1379
-103 107 -220 176 -369 218 -51 15 -99 31 -106 37 -7 6 -28 43 -47 84 -147
318 -449 548 -799 608 -106 18 -274 18 -373 0z m-99 -1327 c13 -13 48 -79 77
-148 86 -202 97 -204 248 -56 118 115 141 131 179 121 62 -15 96 -80 68 -132
-8 -15 -99 -112 -203 -215 -183 -182 -190 -188 -230 -188 -24 0 -49 7 -61 18
-24 20 -232 502 -232 537 0 13 12 37 26 54 33 39 90 43 128 9z"/>
<path d="M1855 4549 c-31 -17 -545 -531 -561 -561 -18 -35 -18 -101 0 -136 16
-29 515 -529 556 -556 35 -23 117 -21 158 4 63 39 89 123 61 197 -5 15 -96
111 -200 213 -145 141 -189 191 -189 209 0 19 50 75 197 223 l197 197 3 58 c5
68 -16 111 -69 143 -37 22 -119 27 -153 9z"/>
<path d="M6660 4553 c-29 -10 -80 -67 -91 -100 -6 -19 -8 -51 -4 -76 7 -38 26
-61 201 -238 119 -121 194 -204 194 -216 0 -12 -65 -84 -171 -189 -214 -211
-229 -231 -229 -298 0 -94 62 -156 155 -156 30 0 61 7 75 16 41 27 540 527
556 556 19 36 18 102 -2 144 -17 35 -515 528 -557 551 -22 12 -99 16 -127 6z"/>
</g>
</svg>
